<?xml version="1.0" standalone="no"?><!DOCTYPE svg PUBLIC "-//W3C//DTD SVG 1.1//EN" "http://www.w3.org/Graphics/SVG/1.1/DTD/svg11.dtd"><svg t="1748698062123" class="icon" viewBox="0 0 1024 1024" version="1.1" xmlns="http://www.w3.org/2000/svg" p-id="1501" xmlns:xlink="http://www.w3.org/1999/xlink" width="200" height="200"><path d="M896.677612 928.510604l12.427072-12.427073c-4.196554 4.187765-8.709497 7.84382-13.051063 11.7899l0.623991 0.637173zM920.907766 903.019286c131.578441-144.682235 127.89602-369.257188-11.864602-509.017811l-310.663629-310.663629-136.706586 136.719769 298.240951 298.254134c68.559825 68.559825 68.577402 180.078299 0.043943 248.620547l12.427072-12.427073 148.522851 148.514063z" fill="#3BABB7" p-id="1502"></path><path d="M772.384915 754.505223l-12.427072 12.427073c-33.190127 33.198915-77.313265 51.466009-124.261936 51.466008h-0.043943c-46.953066 0-91.111358-18.302248-124.327851-51.514346l-298.240951-298.249739-136.715374 136.724163 310.668023 310.65484c71.987377 71.991771 166.535075 107.985459 261.091563 107.98546 88.997701 0 177.75811-32.320056 247.926247-96.125251 4.341566-3.946079 8.854509-7.602134 13.051063-11.7899l12.427073-12.431467-0.623991-0.632778-148.527245-148.514063z m27.873027 152.152541c-37.694281 37.698676-87.204828 56.541422-136.719768 56.541422-49.501758 0-99.016699-18.847141-136.706586-56.541422a17.5684 17.5684 0 0 1 0-24.854145 17.5684 17.5684 0 0 1 24.849751 0c61.68275 61.695933 162.061681 61.709116 223.722459 0a17.5684 17.5684 0 0 1 24.854144 0 17.5684 17.5684 0 0 1 0 24.854145z" fill="#FE8657" p-id="1503"></path><path d="M775.403798 881.803619c-61.665173 61.709116-162.039709 61.695933-223.722459 0a17.5684 17.5684 0 0 0-24.854145 0 17.5684 17.5684 0 0 0 0 24.854145c37.694281 37.698676 87.209222 56.541422 136.71098 56.541422 49.514941 0 99.029882-18.847141 136.724163-56.541422a17.5684 17.5684 0 0 0 0-24.854145 17.5684 17.5684 0 0 0-24.854145 0z" fill="#FCC24C" p-id="1504"></path><path d="M527.205103 61.871705c3.431946 3.431946 7.931706 5.150116 12.427073 5.150116s8.995126-1.713776 12.427072-5.150116a17.5684 17.5684 0 0 0 0-24.854145l-31.867443-31.867444a17.5684 17.5684 0 0 0-24.854145 0 17.5684 17.5684 0 0 0 0 24.854145l31.867443 31.867444zM429.511088 187.900148c3.427552 3.431946 7.927312 5.150116 12.427072 5.150116s8.995126-1.713776 12.427073-5.150116a17.5684 17.5684 0 0 0 0-24.854145l-31.867443-31.867443a17.5684 17.5684 0 0 0-24.854145 0 17.5684 17.5684 0 0 0 0 24.854145l31.867443 31.867443zM456.245992 90.34675a17.511274 17.511274 0 0 0 12.427073 5.154511 17.5684 17.5684 0 0 0 12.427072-30.004261l-31.867443-31.876232a17.5684 17.5684 0 0 0-24.854145 0 17.5684 17.5684 0 0 0 0 24.854145l31.867443 31.876232zM141.908731 447.172471a17.515669 17.515669 0 0 0 12.427072 5.150117 17.5684 17.5684 0 0 0 12.427073-30.004262l-31.867444-31.867443a17.572794 17.572794 0 0 0-24.854145 0 17.5684 17.5684 0 0 0 0 24.854145l31.867444 31.867443zM37.197023 516.474933a17.5684 17.5684 0 0 0-24.854145 0 17.5684 17.5684 0 0 0 0 24.858539l31.867443 31.858654a17.515669 17.515669 0 0 0 12.427072 5.145723 17.572794 17.572794 0 0 0 12.427073-30.004262l-31.867443-31.858654zM70.945225 475.638729a17.524457 17.524457 0 0 0 12.427073 5.150116 17.572794 17.572794 0 0 0 12.427072-30.004261l-31.867443-31.867444a17.5684 17.5684 0 0 0-24.854145 0 17.5684 17.5684 0 0 0 0 24.85854l31.867443 31.863049z" fill="#535353" p-id="1505"></path></svg>